<?xml version="1.0" encoding="UTF-8"?>
<svg version="1.1" xmlns="http://www.w3.org/2000/svg" width="512" height="512">
<path d="M0 0 C1.48502266 -0.01051392 1.48502266 -0.01051392 3.00004578 -0.02124023 C6.24186034 -0.03870946 9.4827874 -0.02723661 12.72460938 -0.01367188 C14.99564785 -0.01636996 17.26668519 -0.02025501 19.53771973 -0.02526855 C24.28518733 -0.03114864 29.03235282 -0.0226485 33.77978516 -0.00390625 C39.84562483 0.01888198 45.9107564 0.00575094 51.97657013 -0.01819611 C56.66250889 -0.03269422 61.34828153 -0.02802964 66.03422546 -0.01768494 C68.26999497 -0.01502875 70.50577986 -0.01824811 72.74153137 -0.02760315 C75.87366319 -0.03783478 79.00467007 -0.02217481 82.13671875 0 C83.04818161 -0.00809692 83.95964447 -0.01619385 84.89872742 -0.02453613 C93.91962395 0.09296376 102.96799439 3.16106899 109.56835938 9.51757812 C115.0721784 16.22789935 118.83569068 24.31957205 121.56835938 32.51757812 C123.94461283 33.70149036 123.94461283 33.70149036 126.56835938 34.51757812 C127.55835938 34.84757812 128.54835937 35.17757812 129.56835938 35.51757812 C132.58436676 35.62990842 135.57784138 35.6853026 138.59448242 35.69458008 C139.51841293 35.70115128 140.44234344 35.70772247 141.39427185 35.7144928 C144.4562081 35.73422512 147.51809526 35.74588917 150.58007812 35.75585938 C152.14966247 35.76197267 152.14966247 35.76197267 153.75095558 35.76820946 C159.29091825 35.78907136 164.83085615 35.80337176 170.37084961 35.81274414 C176.08614499 35.82380005 181.80105012 35.85819043 187.5162077 35.89791584 C191.91637381 35.9240947 196.3164472 35.9324372 200.71668434 35.93602562 C202.8229517 35.9408894 204.92921497 35.9524974 207.03540611 35.97106361 C209.98900386 35.99547834 212.94159536 35.99448543 215.89526367 35.98754883 C217.19155701 36.00676392 217.19155701 36.00676392 218.51403809 36.02636719 C224.29805759 35.97705216 228.74225799 34.8021874 233.56835938 31.51757812 C235.13800069 29.56922227 235.13800069 29.56922227 235.75585938 27.33007812 C238.4948678 20.03806884 241.62116278 13.72137514 247.56835938 8.51757812 C248.65117188 7.49664062 248.65117188 7.49664062 249.75585938 6.45507812 C257.04890348 1.43098108 264.27685789 -0.07749149 273 0 C274.48502266 -0.01051392 274.48502266 -0.01051392 276.00004578 -0.02124023 C279.24186034 -0.03870946 282.4827874 -0.02723661 285.72460938 -0.01367188 C287.99564785 -0.01636996 290.26668519 -0.02025501 292.53771973 -0.02526855 C297.28518733 -0.03114864 302.03235282 -0.0226485 306.77978516 -0.00390625 C312.84562483 0.01888198 318.9107564 0.00575094 324.97657013 -0.01819611 C329.66250889 -0.03269422 334.34828153 -0.02802964 339.03422546 -0.01768494 C341.26999497 -0.01502875 343.50577986 -0.01824811 345.74153137 -0.02760315 C348.87366319 -0.03783478 352.00467007 -0.02217481 355.13671875 0 C356.04818161 -0.00809692 356.95964447 -0.01619385 357.89872742 -0.02453613 C368.35884281 0.11171001 375.95304492 3.99627434 383.43554688 11.15039062 C386.31878432 14.35046735 388.18810551 17.45183032 389.56835938 21.51757812 C389.90751877 22.49486374 390.24667816 23.47214935 390.59611511 24.47904968 C391.97257864 29.36298 391.85566204 34.21009095 391.84301758 39.2512207 C391.85068398 40.83799873 391.85068398 40.83799873 391.85850525 42.45683289 C391.87236616 45.94198316 391.87144689 49.42693487 391.86914062 52.91210938 C391.87302984 55.34437635 391.87736498 57.77664265 391.88212585 60.20890808 C391.88958083 65.30376386 391.88930226 70.39855034 391.8840332 75.4934082 C391.87824363 82.00648023 391.89516104 88.51926741 391.91837788 95.03229237 C391.93314636 100.05532985 391.93398259 105.07829925 391.93086815 110.1013546 C391.93137992 112.50180309 391.93659054 114.90225554 391.94668007 117.30268288 C391.95908549 120.66722462 391.95222748 124.03121827 391.94067383 127.39575195 C391.94831757 128.37738312 391.9559613 129.35901428 391.96383667 130.37039185 C391.87774291 141.7752508 388.78388517 149.93643316 380.97460938 158.20507812 C372.08423168 166.5922269 361.79325083 167.10111788 350.15869141 167.0255127 C348.60625691 167.03012751 347.05382678 167.03648432 345.50140572 167.04442167 C341.25619346 167.06105846 337.01134273 167.05289452 332.76612949 167.0404768 C328.17981631 167.03140539 323.59356414 167.04540639 319.00726318 167.05639648 C310.03089857 167.074164 301.05466791 167.0703496 292.07829809 167.05874592 C284.7817001 167.04970492 277.48513959 167.04849049 270.1885376 167.05284119 C269.1492439 167.05345412 268.1099502 167.05406705 267.03916276 167.05469856 C264.9277234 167.05597748 262.81628405 167.05727434 260.70484471 167.05858892 C240.91531665 167.06998954 221.12586276 167.05688913 201.33634686 167.03538746 C184.36351702 167.01751696 167.39079662 167.02062121 150.41796875 167.0390625 C130.69827155 167.06047835 110.97863932 167.06889095 91.25893211 167.05661345 C89.15534847 167.05533928 87.05176482 167.05408179 84.94818115 167.05284119 C83.39575846 167.05191553 83.39575846 167.05191553 81.81197369 167.05097118 C74.52585801 167.04752043 67.23978361 167.05334071 59.95367432 167.0627594 C51.0718636 167.07398868 42.19019424 167.07091976 33.30839968 167.04963642 C28.77851616 167.03913855 24.24886818 167.03498262 19.71898651 167.04823303 C15.56881586 167.06018896 11.41909815 167.05354196 7.26896834 167.03232282 C5.77112261 167.02787028 4.27323829 167.03009265 2.77541757 167.03982598 C-8.86429566 167.10963749 -18.02625033 165.59790921 -26.68164062 157.36132812 C-34.95697552 148.64267172 -36.89331252 139.26546989 -36.81982422 127.44335938 C-36.82508118 126.38506927 -36.83033813 125.32677917 -36.83575439 124.23641968 C-36.84886726 120.76748526 -36.84024703 117.29901653 -36.83007812 113.83007812 C-36.83210136 111.40209872 -36.83501487 108.97411991 -36.83877563 106.54614258 C-36.84318721 101.46917915 -36.83680541 96.39237458 -36.82275391 91.31542969 C-36.80566299 84.82596693 -36.8155104 78.33687648 -36.8334713 71.84742737 C-36.84434057 66.83725203 -36.84084834 61.82716414 -36.83308792 56.81698608 C-36.83109461 54.42491613 -36.83351445 52.03283809 -36.84052658 49.64077759 C-36.84819274 46.29090507 -36.83646418 42.94162553 -36.81982422 39.59179688 C-36.82589691 38.61487885 -36.8319696 37.63796082 -36.83822632 36.63143921 C-36.73406841 25.2441284 -33.6354028 17.08626749 -25.83789062 8.83007812 C-18.48062358 1.88926016 -9.85604425 -0.08755556 0 0 Z " fill="#3672B5" transform="translate(78.431640625,271.482421875)"/>
<path d="M0 0 C1.0550451 -0.00623996 2.1100902 -0.01247993 3.19710636 -0.01890898 C6.70837773 -0.03477701 10.21894893 -0.02225849 13.73022461 -0.00964355 C16.25731814 -0.01506739 18.78440851 -0.02219152 21.31149292 -0.03088379 C27.44840977 -0.04720054 33.58507026 -0.04485284 39.72199035 -0.03323323 C44.71214765 -0.02417822 49.70225016 -0.02298381 54.69241333 -0.02732849 C55.4042144 -0.02794142 56.11601547 -0.02855436 56.84938627 -0.02918586 C58.29565964 -0.03046484 59.74193298 -0.03176169 61.18820632 -0.03307623 C74.73140314 -0.04446652 88.27449144 -0.03139274 101.81767046 -0.00987476 C113.42366731 0.00799484 125.02950409 0.00489029 136.63549805 -0.0135498 C150.13215358 -0.034984 163.62871415 -0.04336803 177.12538433 -0.03110075 C178.566164 -0.02982663 180.00694369 -0.02856915 181.44772339 -0.02732849 C182.15650684 -0.02671139 182.86529029 -0.02609429 183.59555203 -0.02545848 C188.57634876 -0.02201322 193.55708496 -0.02781611 198.53787231 -0.0372467 C205.2488197 -0.04967458 211.95941925 -0.0407529 218.67035294 -0.01766968 C221.13014348 -0.01239029 223.5899595 -0.0138831 226.04973984 -0.02272034 C229.41354571 -0.03368929 232.77639161 -0.01989455 236.14013672 0 C237.10805177 -0.00892289 238.07596682 -0.01784577 239.07321262 -0.02703905 C248.77449785 0.0838634 256.96480508 3.18811534 263.89355469 10.06628418 C272.1171777 19.29168561 274.68060835 32.48191548 277.9331665 44.06539917 C279.44123749 49.43439366 280.98261134 54.79382007 282.51959229 60.15459633 C283.09162055 62.15163969 283.66213887 64.14910983 284.23242188 66.14665222 C289.22808843 83.62845399 294.38069953 101.064472 299.51889038 118.50479126 C300.90010698 123.19313667 302.27961001 127.88198383 303.65836239 132.57105446 C304.71388818 136.16069917 305.76994135 139.75018857 306.82613182 143.33963776 C307.31520395 145.00187721 307.8041542 146.66415252 308.29296303 148.32646942 C308.9774036 150.65363692 309.66250464 152.98060877 310.34790039 155.30749512 C310.5658171 156.04807978 310.78373381 156.78866444 311.00825405 157.55169106 C312.23768256 161.72021303 313.48394409 165.8831911 314.74578857 170.04202271 C315.02378736 170.960295 315.30178616 171.8785673 315.58820915 172.82466602 C316.12846173 174.60664807 316.67105295 176.38792318 317.21624947 178.16839886 C317.45860266 178.96818566 317.70095585 179.76797247 317.95065308 180.59199524 C318.27526929 181.65541751 318.27526929 181.65541751 318.60644341 182.74032307 C319.07006836 184.50793457 319.07006836 184.50793457 319.07006836 186.50793457 C318.47858505 186.29640244 317.88710175 186.0848703 317.2776947 185.8669281 C306.19208488 182.48566919 294.86583081 183.05436822 283.38647461 183.07434082 C281.08064115 183.06977195 278.77480904 183.06446429 276.46897888 183.05845642 C271.65195154 183.04955522 266.83509026 183.05191458 262.01806641 183.06188965 C255.87413761 183.07337876 249.73078363 183.05315271 243.58693027 183.02397251 C238.82969073 183.00554435 234.07258729 183.0059161 229.31532097 183.01161003 C227.05132173 183.01176242 224.78731277 183.00578724 222.52334785 182.99331856 C204.94412119 182.91012089 189.62080469 183.78850123 176.00756836 196.42199707 C169.97652536 202.94696169 166.54491575 210.39995732 163.07006836 218.50793457 C133.37006836 218.50793457 103.67006836 218.50793457 73.07006836 218.50793457 C71.75006836 215.20793457 70.43006836 211.90793457 69.07006836 208.50793457 C62.12795808 196.57107257 51.78977977 188.40305027 38.55157471 184.45991516 C33.59908232 183.25374289 28.78959836 183.21981551 23.71362305 183.23327637 C22.70760544 183.22816544 21.70158783 183.2230545 20.66508484 183.2177887 C17.35730955 183.20395107 14.04974406 183.20484544 10.74194336 183.20715332 C8.42799808 183.20326253 6.11405352 183.19892708 3.80010986 183.19416809 C-1.04498613 183.1867179 -5.89000925 183.18698799 -10.73510742 183.19226074 C-16.91950574 183.19804653 -23.10360371 183.18113978 -29.28795242 183.15791607 C-34.06658652 183.14312433 -38.84514925 183.14231455 -43.62380219 183.1454258 C-45.90258121 183.14491508 -48.1813645 183.13972468 -50.46012115 183.12961388 C-66.95260034 182.88730064 -66.95260034 182.88730064 -82.92993164 186.50793457 C-76.28629002 162.39560937 -69.20761265 138.41153136 -62.15983772 114.41507149 C-61.08536792 110.75644635 -60.0111943 107.09773434 -58.93722916 103.43896103 C-58.40140164 101.61352698 -57.86548001 99.78812055 -57.32946396 97.96274185 C-53.97891007 86.54969142 -50.66008686 75.12829599 -47.38907242 63.6921978 C-46.05473925 59.03262321 -44.71100309 54.37574622 -43.36907959 49.71835327 C-42.66672014 47.26940092 -41.96938762 44.81900055 -41.27740479 42.36709595 C-40.32796695 39.0039908 -39.36131623 35.6462769 -38.39086914 32.28918457 C-37.99384796 30.85414833 -37.99384796 30.85414833 -37.58880615 29.39012146 C-34.60609722 19.20904658 -29.76726863 10.61564306 -20.92993164 4.50793457 C-13.98471969 0.8688374 -7.75536267 -0.07149411 0 0 Z M38.07006836 45.50793457 C37.73913676 49.10823646 37.73913676 49.10823646 39.07006836 52.50793457 C42.71317175 56.14683101 45.1198548 57.0081455 50.21838379 57.00914001 C51.45491196 57.01897415 52.69144012 57.02880829 53.96543884 57.03894043 C55.32779208 57.0295693 56.69014255 57.01979003 58.05249023 57.00964355 C59.49337796 57.01342835 60.93426205 57.01892971 62.37513733 57.02601624 C66.28223217 57.03996746 70.18888647 57.02880369 74.0959568 57.01230502 C78.18689944 56.99844443 82.27781676 57.00491575 86.36877441 57.00843811 C93.23851614 57.01113944 100.10808307 56.99767135 106.9777832 56.9744873 C114.91733208 56.94787799 122.85658871 56.94613072 130.7961669 56.95787567 C138.43735584 56.96865922 146.07843919 56.96246186 153.71961975 56.94832039 C156.96991983 56.94256558 160.22014252 56.94263929 163.47044373 56.94738579 C167.2987508 56.95216221 171.12673835 56.94202661 174.95498466 56.92043114 C176.35902771 56.91487212 177.76310152 56.91438987 179.16714668 56.919384 C181.08535585 56.92535076 183.00359602 56.91097913 184.92175293 56.89561462 C185.99467842 56.89318473 187.06760391 56.89075483 188.1730423 56.8882513 C191.52034706 56.44882274 193.37172905 55.51088282 196.07006836 53.50793457 C198.41529771 50.62280479 198.41529771 50.62280479 197.94506836 47.00793457 C197.39610779 43.55131197 197.39610779 43.55131197 195.39925289 41.81383514 C192.40849255 40.1370098 190.35234156 40.1251753 186.92811584 40.11352539 C185.66771988 40.1021756 184.40732391 40.09082581 183.10873413 40.07913208 C181.71441587 40.08177534 180.32009819 40.08474656 178.92578125 40.0880127 C177.45548355 40.08067228 175.98519161 40.07208613 174.51490784 40.06234741 C170.52314976 40.04012011 166.53159804 40.0372013 162.53978658 40.03909492 C159.20721331 40.03921457 155.87468386 40.03065312 152.54212278 40.02231741 C144.68007039 40.00307914 136.81812417 40.00020112 128.95605469 40.00695801 C120.84545284 40.0136002 112.73530561 39.99072853 104.62479597 39.95364428 C97.66076155 39.92295758 90.69687346 39.91158608 83.73277277 39.91548109 C79.57365792 39.9175496 75.41489686 39.91205406 71.25584602 39.8875885 C67.34453512 39.86534044 63.43396392 39.86718219 59.52264977 39.88751602 C58.08795219 39.89092954 56.653205 39.88582204 55.21857452 39.87153244 C53.25879577 39.85336036 51.29879037 39.86908498 49.33900452 39.88647461 C47.6944835 39.88540585 47.6944835 39.88540585 46.01673985 39.88431549 C42.06655134 40.72031398 40.53851771 42.3770986 38.07006836 45.50793457 Z M9.07006836 92.50793457 C7.90796617 94.90144952 7.90796617 94.90144952 8.07006836 97.50793457 C9.45564623 100.34507021 10.8400854 102.27795161 13.07006836 104.50793457 C15.81672612 104.71005053 18.46314878 104.78594733 21.21138 104.77536011 C22.4888452 104.78215678 22.4888452 104.78215678 23.79211777 104.78909075 C26.66257287 104.80181022 29.53284006 104.80010954 32.40332031 104.79846191 C34.45459235 104.80444252 36.50586212 104.81124697 38.55712891 104.81881714 C44.14189079 104.83653341 49.72659145 104.84117492 55.31137872 104.84244871 C59.96851954 104.84434429 64.62564599 104.851698 69.2827813 104.8587929 C80.26876912 104.87509634 91.25472414 104.87996012 102.24072266 104.87854004 C113.58331182 104.87733854 124.92571071 104.89843767 136.26825172 104.93002737 C145.99653659 104.95615843 155.72475921 104.96690865 165.45307893 104.96562922 C171.26765412 104.96511859 177.08206039 104.97085711 182.89660072 104.99198532 C188.36557865 105.01131395 193.8342256 105.01152896 199.30321503 104.99695206 C201.31198038 104.99485608 203.32076615 104.99961158 205.32949638 105.01167297 C208.06932487 105.02706012 210.8080029 105.01786071 213.54780579 105.00241089 C214.74372541 105.01784158 214.74372541 105.01784158 215.96380502 105.033584 C219.71679684 104.98673172 221.85312757 104.64771355 225.04020977 102.5942173 C227.63026393 99.98148822 227.63026393 99.98148822 228.07006836 96.50793457 C226.5103244 92.60857468 225.60278563 90.86307942 222.07006836 88.50793457 C219.29572501 88.30986757 216.621446 88.22972752 213.84646606 88.24050903 C212.99805173 88.23597792 212.14963739 88.23144681 211.27551353 88.22677839 C208.42198354 88.2140803 205.56864308 88.21575823 202.71508789 88.21740723 C200.67352044 88.21142535 198.63195525 88.2046206 196.59039307 88.197052 C191.03668106 88.17935013 185.48303064 88.17469486 179.92929316 88.17342043 C175.29695541 88.1715238 170.66463208 88.16416898 166.03229988 88.15707624 C155.10526608 88.14077878 144.17826525 88.13590853 133.2512207 88.1373291 C121.97052634 88.13853091 110.69002318 88.11742431 99.40937722 88.08584177 C89.73202713 88.05971112 80.05473961 88.04896046 70.3773545 88.05023992 C64.59409297 88.0507505 58.81100129 88.04501453 53.02777481 88.02388382 C47.58915174 88.00455554 42.1508615 88.00433993 36.71222687 88.01891708 C34.71474854 88.02101301 32.71724968 88.0162579 30.71980667 88.00419617 C27.99535623 87.98880841 25.27206265 87.99800874 22.54763794 88.01345825 C21.35857792 87.99802756 21.35857792 87.99802756 20.14549649 87.98228514 C15.16969933 88.04475052 12.53025407 88.89660651 9.07006836 92.50793457 Z M-10.5249939 139.85621071 C-12.24276711 143.09839011 -12.54571066 144.89023282 -11.92993164 148.50793457 C-9.69786733 151.35574076 -8.38000166 152.35791123 -4.92993164 153.50793457 C-3.53323641 153.59963744 -2.13258204 153.63701551 -0.73288155 153.63936234 C0.5568259 153.64512405 0.5568259 153.64512405 1.87258804 153.65100217 C2.8176122 153.65013569 3.76263635 153.6492692 4.73629761 153.64837646 C5.73988693 153.65134759 6.74347626 153.65431871 7.77747738 153.65737987 C11.15610329 153.66608398 14.53469383 153.66757655 17.91333008 153.66906738 C20.32927527 153.67369429 22.74521973 153.67871878 25.16116333 153.68411255 C31.73549106 153.69724959 38.30981142 153.70372042 44.88414907 153.70812321 C48.98836109 153.71088535 53.09257074 153.71512262 57.19678116 153.71962738 C68.55807027 153.73181947 79.91935749 153.74211927 91.280653 153.74550247 C92.00782219 153.74572204 92.73499139 153.7459416 93.48419601 153.74616782 C94.21311162 153.7463861 94.94202723 153.74660438 95.69303119 153.74682927 C97.17010999 153.74727274 98.64718878 153.7477193 100.12426758 153.74816895 C101.22329234 153.74850109 101.22329234 153.74850109 102.34451963 153.74883994 C114.21998852 153.75278904 126.09539608 153.77024672 137.97084127 153.79352847 C150.16040661 153.81723339 162.34994116 153.82970391 174.53952992 153.83087039 C181.38469287 153.83178758 188.22977589 153.83755088 195.07491684 153.85569 C201.51152751 153.87268639 207.94802684 153.87435005 214.384655 153.86555099 C216.74979559 153.86477802 219.11494419 153.86915738 221.48006439 153.87900925 C224.70351652 153.89165127 227.92642407 153.88589396 231.14987183 153.87542725 C232.09043454 153.88348365 233.03099725 153.89154006 234.00006187 153.89984059 C240.12102712 153.85321024 243.62333784 152.95466509 248.07006836 148.50793457 C248.54157264 144.97165246 248.33963988 143.02108488 246.67294312 139.84839821 C242.73846723 136.31057998 239.17543066 136.81383503 234.04907227 136.87301636 C233.01942163 136.8652164 231.989771 136.85741645 230.92891884 136.84938014 C227.46779561 136.82938609 224.00776286 136.84525452 220.54663086 136.86096191 C218.06979732 136.85418914 215.59296882 136.84528793 213.1161499 136.83441162 C207.08062389 136.81394527 201.04552819 136.81698728 195.01001883 136.83147483 C190.10546917 136.84276085 185.20100666 136.84430076 180.29644775 136.83885574 C179.59875357 136.83808958 178.90105939 136.83732341 178.18222296 136.83653403 C176.764928 136.83493542 175.34763306 136.83331436 173.93033814 136.83167107 C160.63626303 136.81740888 147.34236023 136.83381359 134.04831338 136.86067291 C122.63816103 136.88301219 111.228263 136.87913219 99.81811523 136.8560791 C86.57204944 136.8293293 73.32613473 136.81878222 60.0800457 136.83414042 C58.66792681 136.83573319 57.2558079 136.83730504 55.84368896 136.83885574 C54.80146948 136.84001281 54.80146948 136.84001281 53.73819506 136.84119325 C48.83879323 136.84551274 43.93948711 136.83821839 39.0401001 136.82645798 C32.44742061 136.81098106 25.85514793 136.82197931 19.26248932 136.85092926 C16.83888805 136.85755648 14.41524644 136.85561471 11.99166107 136.84461594 C8.69090984 136.83101431 5.39171563 136.8480128 2.09106445 136.87301636 C0.64185576 136.85628594 0.64185576 136.85628594 -0.83662987 136.83921754 C-6.20338488 136.86815589 -6.20338488 136.86815589 -10.5249939 139.85621071 Z " fill="#444549" transform="translate(137.929931640625,73.4920654296875)"/>
</svg>
